PathFileType	4	(X/Y/Z)	/Users/itak/Documents/Research/Walk-IL/dataset/trc/00229_00009.trc
DataRate	CameraRate	NumFrames	NumMarkers	Units	OrigDataRate	OrigDataStartFrame	OrigNumFrames
100.000000	100.000000	4	53	mm	100.000000	100	802
Frame#	Time	RPSI			LPSI			L3			STRN			T10			C7			CLAV			RBAK			LBAK			LSHO			LUPA			LAEL			LAOL			LWTS			LWPS			LFRA			LIFD			LHPS			LHTS			RSHO			RUPA			RAEL			RAOL			RWTS			RWPS			RFRA			RIFD			RHTS			RHPS			RBHD			LFHD			RFHD			LBHD			LHIP			RHIP			RASI			LASI			LKNE			LTHI			LANK			LTIP			LTOE			LMT5			LHEE			RKNE			RTHI			RTIP			RTOE			RMT1			RMT5			RHEE			LMT1			RANK			
		X1	Y1	Z1	X2	Y2	Z2	X3	Y3	Z3	X4	Y4	Z4	X5	Y5	Z5	X6	Y6	Z6	X7	Y7	Z7	X8	Y8	Z8	X9	Y9	Z9	X10	Y10	Z10	X11	Y11	Z11	X12	Y12	Z12	X13	Y13	Z13	X14	Y14	Z14	X15	Y15	Z15	X16	Y16	Z16	X17	Y17	Z17	X18	Y18	Z18	X19	Y19	Z19	X20	Y20	Z20	X21	Y21	Z21	X22	Y22	Z22	X23	Y23	Z23	X24	Y24	Z24	X25	Y25	Z25	X26	Y26	Z26	X27	Y27	Z27	X28	Y28	Z28	X29	Y29	Z29	X30	Y30	Z30	X31	Y31	Z31	X32	Y32	Z32	X33	Y33	Z33	X34	Y34	Z34	X35	Y35	Z35	X36	Y36	Z36	X37	Y37	Z37	X38	Y38	Z38	X39	Y39	Z39	X40	Y40	Z40	X41	Y41	Z41	X42	Y42	Z42	X43	Y43	Z43	X44	Y44	Z44	X45	Y45	Z45	X46	Y46	Z46	X47	Y47	Z47	X48	Y48	Z48	X49	Y49	Z49	X50	Y50	Z50	X51	Y51	Z51	X52	Y52	Z52	X53	Y53	Z53	

101	1	-42.10844802856445	1040.033203125	818.7261962890625	-33.72578811645508	1044.478881835938	697.705810546875	-39.65521621704102	1128.518798828125	739.8670654296875	214.7575073242188	1300.11962890625	748.6965942382812	-41.84082412719727	1254.522094726562	745.2747192382812	36.27787780761719	1512.327392578125	741.36279296875	195.6000671386719	1419.450439453125	747.9837036132812	-51.28170013427734	1379.832153320312	814.37451171875	16.04184532165527	1474.037353515625	630.2308959960938	107.2442779541016	1470.740234375	576.7850952148438	74.65182495117188	1352.461181640625	498.318115234375	83.02323150634766	1140.124389648438	476.6303405761719	8.337762832641602	1127.533203125	521.2005004882812	164.4797668457031	905.4008178710938	543.2034301757812	140.9687194824219	887.3070678710938	464.2731323242188	102.400016784668	1032.074829101562	466.88818359375	164.4305877685547	710.7072143554688	540.5535888671875	155.3128356933594	798.8451538085938	470.9358520507812	196.5976257324219	803.0973510742188	525.448974609375	86.96366882324219	1469.943481445312	913.4678955078125	61.60078430175781	1406.43896484375	980.355224609375	20.0829963684082	1127.600341796875	1019.642944335938	-8.302270889282227	1121.954345703125	928.7295532226562	149.4599304199219	909.7772216796875	990.5614013671875	88.83573150634766	893.8770141601562	1048.100708007812	41.18703079223633	1058.378051757812	1034.630859375	185.2096252441406	723.4773559570312	995.4859008789062	197.6286315917969	798.171630859375	1018.922424316406	137.8067932128906	791.42138671875	1058.350463867188	122.0163497924805	1683.204467773438	796.5905151367188	317.8896484375	1659.437255859375	683.8613891601562	326.2660522460938	1661.228637695312	783.5192260742188	155.1271362304688	1672.8896484375	660.4545288085938	72.86403656005859	977.5525512695312	562.1925048828125	51.18258666992188	1003.323791503906	930.4584350585938	150.3749542236328	1041.835327148438	897.3826904296875	172.8046875	1018.25634765625	616.3418579101562	106.5086212158203	494.38134765625	645.7769165039062	105.3842620849609	635.901611328125	606.4863891601562	-31.03605461120605	35.24318695068359	684.1295166015625	37.37208938598633	271.7901000976562	656.8336181640625	178.4451141357422	42.48959732055664	755.3798828125	98.01278686523438	37.19167327880859	677.6403198242188	-96.89836883544922	44.16424942016602	732.1912231445312	218.6406860351562	528.2816772460938	915.052001953125	154.9103546142578	791.3298950195312	943.234130859375	200.3487548828125	408.6277770996094	903.638916015625	193.7197875976562	56.59743499755859	870.2055053710938	140.3977966308594	64.30207824707031	823.5432739257812	92.08198547363281	59.20358276367188	933.1858520507812	-71.05682373046875	105.1372299194336	849.3551025390625	108.8504638671875	34.22556304931641	794.8965454101562	-11.80851650238037	88.512451171875	907.8745727539062	
102	1.01	-39.8194580078125	1040.098754882812	818.6885375976562	-31.96200370788574	1044.505004882812	697.572998046875	-37.63427352905273	1128.533569335938	739.7183837890625	216.8074798583984	1300.045288085938	747.7183837890625	-39.87613296508789	1254.528686523438	744.9716186523438	38.35718154907227	1512.289306640625	740.786376953125	197.6801605224609	1419.395629882812	747.0443115234375	-49.12215042114258	1379.872802734375	814.0115966796875	17.80746650695801	1473.978637695312	629.736328125	108.8798065185547	1470.67333984375	576.0474243164062	76.04780578613281	1352.3955078125	497.6603698730469	84.26261138916016	1140.0654296875	475.9320373535156	9.708451271057129	1127.5185546875	520.7183837890625	165.6767730712891	905.2315063476562	542.1728515625	141.9385070800781	887.212646484375	463.2905578613281	103.5285568237305	1032.008911132812	466.0890197753906	165.3568115234375	710.5283813476562	539.3762817382812	156.226318359375	798.7138061523438	469.8627624511719	197.5917053222656	802.8917846679688	524.2460327148438	89.39103698730469	1469.938720703125	912.7767333984375	64.12518310546875	1406.480712890625	979.73974609375	22.25220489501953	1127.721923828125	1019.190246582031	-6.29021167755127	1122.096923828125	928.307861328125	151.1248016357422	909.6428833007812	990.0059814453125	90.54936981201172	893.84619140625	1047.644897460938	43.24309539794922	1058.466796875	1034.169555664062	186.7464294433594	723.3626708984375	995.0185546875	199.2654876708984	798.0626220703125	1018.433959960938	139.4966430664062	791.3751831054688	1057.919067382812	125.0607528686523	1683.263427734375	795.854248046875	320.2019348144531	1658.635375976562	682.0562744140625	329.1243896484375	1660.428466796875	781.6646728515625	157.3510894775391	1672.738647460938	659.5260620117188	73.96030426025391	977.3309936523438	561.6265258789062	53.92136383056641	1003.663269042969	929.994140625	153.0401916503906	1041.927124023438	896.3845825195312	174.2616119384766	1018.077209472656	615.2273559570312	106.7687072753906	494.1529541015625	645.2092895507812	105.8866424560547	635.6826171875	605.907470703125	-31.02936363220215	35.2468147277832	684.1482543945312	37.46527862548828	271.6951293945312	656.65478515625	178.4239044189453	42.49385833740234	755.37646484375	98.00714111328125	37.19572448730469	677.635498046875	-96.93254852294922	44.18825912475586	732.1906127929688	225.5470275878906	529.8783569335938	913.8212890625	159.2247619628906	792.3585815429688	942.291015625	207.6287536621094	410.1287841796875	902.4688110351562	200.8338012695312	58.77927780151367	869.2906494140625	146.9911499023438	65.90927124023438	823.2573852539062	99.56495666503906	61.05869674682617	932.9624633789062	-64.25828552246094	106.3949890136719	850.0648193359375	109.0623092651367	34.60258483886719	794.5319213867188	-4.521019458770752	90.06028747558594	908.2422485351562	
103	1.02	-37.44036865234375	1040.193481445312	818.68701171875	-30.09484481811523	1044.5498046875	697.4900512695312	-35.51350402832031	1128.559936523438	739.60546875	218.9432830810547	1299.985229492188	746.7355346679688	-37.7875862121582	1254.537353515625	744.72216796875	40.53141784667969	1512.2626953125	740.2423706054688	199.8488006591797	1419.36083984375	746.107177734375	-46.84992218017578	1379.9365234375	813.6886596679688	19.65532684326172	1473.943969726562	629.2722778320312	110.5830001831055	1470.635620117188	575.326904296875	77.49344635009766	1352.364501953125	497.0179443359375	85.52113342285156	1140.036987304688	475.2628173828125	11.10302257537842	1127.538818359375	520.2737426757812	166.8842315673828	905.0812377929688	541.16943359375	142.8938751220703	887.1414184570312	462.3359069824219	104.6914443969727	1031.97314453125	465.3294067382812	166.2501068115234	710.368408203125	538.23828125	157.1323699951172	798.6006469726562	468.8299255371094	198.5735015869141	802.6981201171875	523.0756225585938	91.92573547363281	1469.939331054688	912.1019897460938	66.75955963134766	1406.53759765625	979.1453247070312	24.53184700012207	1127.852783203125	1018.758972167969	-4.143392086029053	1122.23876953125	927.90087890625	152.8945617675781	909.4970092773438	989.486572265625	92.37301635742188	893.8257446289062	1047.227661132812	45.40187835693359	1058.568359375	1033.73193359375	188.2646331787109	723.1940307617188	994.5676879882812	200.9439086914062	797.8991088867188	1017.948791503906	141.2211151123047	791.3104248046875	1057.512084960938	128.1391754150391	1683.3212890625	795.1254272460938	322.5476379394531	1657.90869140625	680.27099609375	332.0115356445312	1659.70849609375	779.823486328125	159.6051025390625	1672.586059570312	658.6084594726562	75.11829376220703	977.1136474609375	561.1019287109375	56.7853889465332	1004.022155761719	929.5582275390625	155.8042297363281	1042.038696289062	895.4107055664062	175.7757720947266	1017.899780273438	614.1478271484375	107.0443420410156	493.9184265136719	644.6632690429688	106.3984756469727	635.467529296875	605.352294921875	-31.02780151367188	35.25197601318359	684.1661987304688	37.56832504272461	271.6067504882812	656.4869995117188	178.4055480957031	42.49629211425781	755.3736572265625	98.00339508056641	37.19853973388672	677.6332397460938	-96.96737670898438	44.21749496459961	732.18505859375	232.3174896240234	531.483642578125	912.494140625	163.5235290527344	793.3793334960938	941.3427734375	214.8936614990234	411.6192626953125	901.2459106445312	208.6854400634766	60.8339958190918	868.5984497070312	154.4508361816406	67.24300384521484	823.1262817382812	107.7391662597656	62.6679573059082	932.8804321289062	-56.75027465820312	107.0765609741211	850.7149047851562	109.114875793457	34.95530700683594	794.2382202148438	3.430636882781982	91.14468383789062	908.6076049804688	
104	1.03	-34.97710037231445	1040.30517578125	818.7146606445312	-28.1287841796875	1044.602416992188	697.4551391601562	-33.30325317382812	1128.586059570312	739.5193481445312	221.1710357666016	1299.930419921875	745.7498168945312	-35.57488250732422	1254.544189453125	744.5228881835938	42.80724716186523	1512.240234375	739.7279663085938	202.1129760742188	1419.333740234375	745.172607421875	-44.46440505981445	1380.011596679688	813.4041137695312	21.5993766784668	1473.929931640625	628.8336181640625	112.3655242919922	1470.615234375	574.6228637695312	79.00058746337891	1352.359985351562	496.3895568847656	86.79417419433594	1140.029541015625	474.6145324707031	12.52191543579102	1127.584106445312	519.8584594726562	168.1017761230469	904.9401245117188	540.1907348632812	143.8377380371094	887.0809936523438	461.409423828125	105.8780136108398	1031.955688476562	464.6014099121094	167.1224212646484	710.2197265625	537.146240234375	158.0305328369141	798.4976196289062	467.8390502929688	199.5533599853516	802.5078735351562	521.9425048828125	94.58062744140625	1469.937377929688	911.4437255859375	69.51306915283203	1406.6015625	978.5715942382812	26.93117332458496	1127.9873046875	1018.346984863281	-1.852228045463562	1122.373901367188	927.510986328125	154.7786712646484	909.3328247070312	989.00341796875	94.31133270263672	893.8111572265625	1046.844970703125	47.67327880859375	1058.674560546875	1033.316040039062	189.7765350341797	722.9658203125	994.1355590820312	202.6689147949219	797.673095703125	1017.469421386719	142.9703369140625	791.2193603515625	1057.12548828125	131.252197265625	1683.362548828125	794.4013061523438	324.9292602539062	1657.252685546875	678.504638671875	334.9331970214844	1659.063842773438	777.9962158203125	161.8953247070312	1672.424926757812	657.7025146484375	76.33804321289062	976.8973999023438	560.6153564453125	59.76528167724609	1004.381286621094	929.1483764648438	158.6540222167969	1042.15380859375	894.4679565429688	177.345947265625	1017.714904785156	613.1073608398438	107.3584518432617	493.6739807128906	644.1412963867188	106.9470901489258	635.2527465820312	604.82568359375	-31.03042030334473	35.25896835327148	684.1839599609375	37.68780517578125	271.519287109375	656.331298828125	178.3913269042969	42.4958381652832	755.3700561523438	98.00168609619141	37.19921493530273	677.6329345703125	-96.99855804443359	44.24968338012695	732.1760864257812	238.9507293701172	533.0812377929688	911.078125	167.8108673095703	794.3804931640625	940.3947143554688	222.14208984375	413.0938415527344	899.9788208007812	217.2487640380859	62.7039680480957	868.13037109375	162.7406005859375	68.2989501953125	823.1201782226562	116.5850143432617	64.01287841796875	932.9353637695312	-48.54933929443359	107.1907730102539	851.300537109375	108.9757995605469	35.16511535644531	794.1106567382812	12.03062629699707	91.77076721191406	908.9713745117188	
